<?xml version="1.0" encoding="UTF-8"?>
<svg id="_图层_1" data-name="图层 1" xmlns="http://www.w3.org/2000/svg" viewBox="0 0 521 309">
  <defs>
    <style>
      .cls-1 {
        fill: #3d7b52;
      }
    </style>
  </defs>
  <g>
    <path class="cls-1" d="M56.11,259.92h-25.84c-1.02,0-1.86-.83-1.86-1.86v-3.34c0-1.02.83-1.86,1.86-1.86h34.94c0-4.74-3.84-8.59-8.59-8.59h-27.69c-5.03,0-9.1,4.07-9.1,9.1v6.02c0,5.03,4.07,9.1,9.1,9.1h25.84c1.02,0,1.86.83,1.86,1.86v3.34c0,1.02-.83,1.86-1.86,1.86H19.83c0,4.74,3.84,8.59,8.59,8.59h27.69c5.03,0,9.1-4.07,9.1-9.1v-6.02c0-5.03-4.07-9.1-9.1-9.1Z"/>
    <path class="cls-1" d="M75.85,244.28h44.31v8.58h-44.31v-8.58ZM75.85,259.92h44.31v8.59h-44.31v-8.59ZM75.85,275.56h44.31v8.59h-44.31v-8.59Z"/>
    <path class="cls-1" d="M155.65,284.14h-14.4c-5.76,0-10.44-4.68-10.44-10.44v-18.98c0-5.76,4.68-10.44,10.44-10.44h26.65c5.76,0,10.44,4.68,10.44,10.44v18.98c0,4.9-3.39,9.02-7.94,10.14l2.99,4.6h-10.25l-2.79-4.29h-4.7ZM154.77,275.56l-2.79-4.29h10.25l2.79,4.29h2.88c1.02,0,1.85-.83,1.85-1.85v-18.98c0-1.02-.83-1.85-1.85-1.85h-26.65c-1.02,0-1.85.84-1.85,1.85v18.98c0,1.02.83,1.85,1.85,1.85h13.52Z"/>
    <path class="cls-1" d="M213.74,277.14h12.31c1.02,0,1.85-.83,1.85-1.85v-29.42h8.59v29.5c-.04,5.72-4.71,10.36-10.44,10.36h-26.65c-5.76,0-10.44-4.68-10.44-10.44v-29.42h8.59v29.42c0,1.02.83,1.85,1.85,1.85h14.34Z"/>
    <path class="cls-1" d="M271.95,244.28h12.25c5.76,0,10.44,4.68,10.44,10.44v18.98c0,5.76-4.68,10.44-10.44,10.44h-26.65c-5.76,0-10.44-4.68-10.44-10.44v-18.98c0-5.76,4.68-10.44,10.44-10.44h14.4ZM271.95,275.56h12.25c1.02,0,1.85-.83,1.85-1.85v-18.98c0-1.02-.83-1.85-1.85-1.85h-26.65c-1.02,0-1.85.84-1.85,1.85v18.98c0,1.02.83,1.85,1.85,1.85h14.4Z"/>
    <path class="cls-1" d="M313.85,244.28v39.86h-8.59v-39.86h8.59Z"/>
    <path class="cls-1" d="M359.36,243.63l26.31,40.51h-10.25l-20.36-31.35-20.36,31.35h-10.25l26.31-40.51h8.59Z"/>
    <path class="cls-1" d="M404.9,261.44v22.7h-8.59v-39.86h8.59l12.36,21.37,4.96,8.58,4.96-8.58,12.36-21.37h8.59v39.86h-8.59v-22.7l-7.4,12.79-4.96,8.58-.77,1.33h-8.39l-.77-1.33-4.96-8.58-7.4-12.79Z"/>
    <path class="cls-1" d="M501.17,275.56h-31.95c-1.02,0-1.86-.83-1.86-1.86v-18.98c0-1.02.83-1.85,1.85-1.85h31.95c0-4.74-3.84-8.59-8.59-8.59h-23.37c-5.77,0-10.44,4.67-10.44,10.44v18.98c0,5.77,4.67,10.44,10.44,10.44h23.37c4.74,0,8.59-3.84,8.59-8.59h0Z"/>
  </g>
  <path class="cls-1" d="M397.6,20.79c-16.14,4.17-32.62,4.56-49.16,4.62-11.96.05-23.91.49-35.87.52-3.67,0-6.09,1.41-8.28,4.22-4.56,5.83-9.35,11.49-14.17,17.1-.68.79-2.11.95-3.19,1.4-.25-1.12-.94-2.35-.67-3.33,1.03-3.76,2.3-7.47,3.6-11.15.79-2.25,1.81-4.42,2.8-6.81-.77-.18-1.17-.37-1.55-.34-21.41,1.47-42.42,5.09-62.92,11.52-2.5.78-3.86,2.42-4.76,4.68-4.39,10.95-7.7,22.2-8.72,34-.27,3.13-1.49,4.11-4.57,4.12-3.1,0-4.52-.97-4.42-4.14.27-8.77.47-17.54.7-26.31.03-1.01.13-2.01.27-4-17.59,8.36-31.06,20.05-40.46,36.19-13.93,23.93-16.98,49.72-13.28,76.75-.12.12-.24.22-.37.36-3.88,4.29-8.14,8.27-11.65,12.83-7.12,9.26-13.97,18.72-20.74,28.23h16.6c7.16-9.87,15.05-19.16,23.34-28.14,3.27,2.24,6.05,4.45,9.1,6.17,22.1,12.47,46.04,16.97,71.03,14.68,32.32-2.96,60.61-16.25,86.02-36.06.77-.6,1.38-1.39,2.42-2.46-1.54-.37-2.43-.65-3.34-.78-11.47-1.6-22.18-5.31-32.12-11.28-1.49-.9-2.75-1.53-1.69-3.61.93-1.81,1.46-3.94,4.26-3.09.91.28,1.83.52,2.75.78,16.3,4.72,32.4,4.19,48.26-1.93,1.14-.44,2.23-1.25,3.08-2.15,2.4-2.53,4.76-5.11,6.98-7.81,10.75-13.07,19.43-27.43,26.46-42.8,8.64-18.87,14.8-38.48,17.45-59.14.35-2.71-.56-3.54-3.16-2.86ZM301.94,79.8c-21.48,8.21-42.28,17.87-62.28,29.28-25.98,14.82-49.74,32.52-70.73,53.87-1.44,1.46-2.8,3-4.18,4.59-.43-.76-.69-1.49-1.19-2.01-1.82-1.9-3.71-3.72-5.59-5.56-.79-.77-1.57-1.18-2.33-1.28.27-.26.55-.51.83-.77,10.38-9.63,20.3-19.84,31.26-28.77,20.82-16.99,43.6-31.14,68.13-42.13,14.27-6.39,29.13-11.45,43.69-17.18,2.5-.99,3.8-.33,4.34,2.22.15.72.39,1.43.68,2.11,1.23,2.87.53,4.42-2.63,5.62Z"/>
</svg>