<?xml version="1.0" encoding="UTF-8"?>
<svg id="_图层_1" data-name="图层 1" xmlns="http://www.w3.org/2000/svg" viewBox="0 0 459.85 255.9">
  <defs>
    <style>
      .cls-1 {
        fill: #3d7b52;
      }
    </style>
  </defs>
  <g>
    <path class="cls-1" d="M34.66,228.66H9.97c-.97,0-1.77-.8-1.77-1.77v-3.19c0-.97.8-1.77,1.77-1.77h33.38c0-4.53-3.67-8.2-8.2-8.2H8.69c-4.8,0-8.69,3.89-8.69,8.69v5.76c0,4.8,3.89,8.69,8.69,8.69h24.68c.97,0,1.77.8,1.77,1.77v3.19c0,.97-.8,1.77-1.77,1.77H0c0,4.53,3.67,8.2,8.2,8.2h26.46c4.8,0,8.69-3.89,8.69-8.69v-5.75c0-4.8-3.89-8.69-8.69-8.69Z"/>
    <path class="cls-1" d="M53.52,213.72h42.33v8.2h-42.33v-8.2ZM53.52,228.66h42.33v8.2h-42.33v-8.2ZM53.52,243.6h42.33v8.2h-42.33v-8.2Z"/>
    <path class="cls-1" d="M129.75,251.8h-13.75c-5.5,0-9.97-4.47-9.97-9.97v-18.14c0-5.5,4.47-9.97,9.97-9.97h25.46c5.5,0,9.97,4.47,9.97,9.97v18.14c0,4.68-3.24,8.61-7.59,9.68l2.85,4.39h-9.79l-2.66-4.1h-4.49ZM128.92,243.6l-2.66-4.1h9.79l2.66,4.1h2.75c.97,0,1.77-.8,1.77-1.77v-18.14c0-.97-.8-1.77-1.77-1.77h-25.46c-.97,0-1.77.8-1.77,1.77v18.14c0,.97.8,1.77,1.77,1.77h12.92Z"/>
    <path class="cls-1" d="M185.25,245.12h11.76c.97,0,1.77-.8,1.77-1.77v-28.11h8.2v28.18c-.04,5.47-4.5,9.9-9.97,9.9h-25.46c-5.5,0-9.97-4.47-9.97-9.97v-28.11h8.2v28.11c0,.97.8,1.77,1.77,1.77h13.7Z"/>
    <path class="cls-1" d="M240.86,213.72h11.7c5.5,0,9.97,4.47,9.97,9.97v18.14c0,5.5-4.47,9.97-9.97,9.97h-25.46c-5.5,0-9.97-4.47-9.97-9.97v-18.14c0-5.5,4.47-9.97,9.97-9.97h13.75ZM240.86,243.6h11.7c.97,0,1.77-.8,1.77-1.77v-18.14c0-.97-.8-1.77-1.77-1.77h-25.46c-.97,0-1.77.8-1.77,1.77v18.14c0,.97.8,1.77,1.77,1.77h13.75Z"/>
    <path class="cls-1" d="M280.89,213.72v38.08h-8.2v-38.08h8.2Z"/>
    <path class="cls-1" d="M324.37,213.1l25.13,38.7h-9.79l-19.45-29.95-19.45,29.95h-9.79l25.13-38.7h8.2Z"/>
    <path class="cls-1" d="M367.87,230.12v21.68h-8.2v-38.08h8.2l11.81,20.41,4.74,8.2,4.74-8.2,11.81-20.41h8.2v38.08h-8.2v-21.68l-7.07,12.22-4.74,8.2-.73,1.27h-8.01l-.73-1.27-4.74-8.2-7.07-12.22Z"/>
    <path class="cls-1" d="M459.85,243.6h-30.53c-.97,0-1.77-.8-1.77-1.77v-18.13c0-.97.8-1.77,1.77-1.77h30.53c0-4.53-3.67-8.2-8.2-8.2h-22.33c-5.51,0-9.97,4.47-9.97,9.97v18.13c0,5.51,4.47,9.97,9.97,9.97h22.32c4.53,0,8.2-3.67,8.2-8.2h0Z"/>
  </g>
  <path class="cls-1" d="M360.9.21c-15.42,3.99-31.17,4.36-46.96,4.42-11.42.04-22.85.47-34.27.49-3.51,0-5.82,1.35-7.91,4.04-4.35,5.57-8.93,10.97-13.54,16.34-.65.76-2.02.91-3.05,1.34-.24-1.07-.9-2.25-.64-3.18.98-3.6,2.19-7.13,3.43-10.65.76-2.15,1.73-4.22,2.67-6.5-.74-.17-1.12-.35-1.49-.33-20.45,1.41-40.52,4.86-60.11,11.01-2.39.75-3.68,2.31-4.55,4.47-4.19,10.46-7.35,21.21-8.33,32.48-.26,2.99-1.42,3.93-4.36,3.93-2.96,0-4.32-.93-4.23-3.96.26-8.38.45-16.76.67-25.13.03-.96.13-1.92.26-3.82-16.81,7.99-29.67,19.15-38.65,34.58-13.31,22.86-16.22,47.5-12.69,73.32-.12.11-.23.21-.35.34-3.7,4.09-7.78,7.9-11.13,12.26-6.8,8.84-13.35,17.88-19.82,26.97h15.86c6.84-9.43,14.38-18.31,22.3-26.89,3.13,2.14,5.78,4.25,8.7,5.89,21.11,11.91,43.99,16.21,67.86,14.02,30.88-2.83,57.9-15.53,82.18-34.45.73-.57,1.32-1.33,2.32-2.35-1.48-.35-2.32-.62-3.19-.74-10.95-1.53-21.19-5.07-30.68-10.77-1.42-.86-2.62-1.46-1.61-3.45.88-1.73,1.39-3.76,4.07-2.95.87.26,1.75.49,2.63.75,15.57,4.51,30.95,4.01,46.1-1.84,1.09-.42,2.13-1.2,2.94-2.05,2.3-2.41,4.55-4.88,6.67-7.46,10.27-12.49,18.56-26.21,25.28-40.89,8.25-18.03,14.14-36.76,16.67-56.49.33-2.59-.54-3.38-3.02-2.74ZM269.52,56.59c-20.52,7.84-40.39,17.07-59.49,27.97-24.82,14.16-47.52,31.07-67.57,51.46-1.37,1.4-2.68,2.86-4,4.39-.41-.72-.66-1.43-1.13-1.92-1.74-1.81-3.54-3.55-5.34-5.31-.76-.74-1.5-1.13-2.22-1.22.26-.25.53-.49.79-.74,9.92-9.2,19.4-18.95,29.86-27.49,19.89-16.23,41.65-29.75,65.08-40.25,13.63-6.11,27.83-10.94,41.74-16.41,2.39-.94,3.63-.32,4.14,2.13.14.69.37,1.37.65,2.02,1.17,2.75.51,4.22-2.51,5.37Z"/>
</svg>