<?xml version="1.0" encoding="UTF-8"?>
<svg id="_图层_1" data-name="图层 1" xmlns="http://www.w3.org/2000/svg" viewBox="0 0 521 309">
  <defs>
    <style>
      .cls-1 {
        fill: #3d7b52;
      }
    </style>
  </defs>
  <g>
    <path class="cls-1" d="M68.77,253.39h-24.24c-.96,0-1.74-.78-1.74-1.74v-3.14c0-.96.78-1.74,1.74-1.74h32.77c0-4.45-3.61-8.05-8.05-8.05h-25.98c-4.71,0-8.54,3.82-8.54,8.54v5.65c0,4.71,3.82,8.54,8.54,8.54h24.24c.96,0,1.74.78,1.74,1.74v3.13c0,.96-.78,1.74-1.74,1.74h-32.77c0,4.45,3.61,8.05,8.05,8.05h25.98c4.71,0,8.54-3.82,8.54-8.54v-5.65c0-4.71-3.82-8.54-8.54-8.54Z"/>
    <path class="cls-1" d="M87.29,238.72h41.56v8.05h-41.56v-8.05ZM87.29,253.39h41.56v8.05h-41.56v-8.05ZM87.29,268.05h41.56v8.05h-41.56v-8.05Z"/>
    <path class="cls-1" d="M162.14,276.11h-13.51c-5.4,0-9.79-4.39-9.79-9.79v-17.81c0-5.4,4.39-9.79,9.79-9.79h25c5.4,0,9.79,4.39,9.79,9.79v17.81c0,4.59-3.18,8.46-7.45,9.51l2.8,4.31h-9.61l-2.61-4.03h-4.41ZM161.32,268.05l-2.61-4.03h9.61l2.61,4.03h2.7c.96,0,1.74-.78,1.74-1.74v-17.81c0-.95-.78-1.74-1.74-1.74h-25c-.96,0-1.74.78-1.74,1.74v17.81c0,.96.78,1.74,1.74,1.74h12.68Z"/>
    <path class="cls-1" d="M216.64,269.54h11.55c.96,0,1.74-.78,1.74-1.74v-27.6h8.05v27.67c-.04,5.37-4.42,9.72-9.79,9.72h-25c-5.4,0-9.79-4.39-9.79-9.79v-27.6h8.05v27.6c0,.96.78,1.74,1.74,1.74h13.45Z"/>
    <path class="cls-1" d="M271.24,238.72h11.49c5.4,0,9.79,4.39,9.79,9.79v17.81c0,5.4-4.39,9.79-9.79,9.79h-25c-5.4,0-9.79-4.39-9.79-9.79v-17.81c0-5.4,4.39-9.79,9.79-9.79h13.51ZM271.24,268.05h11.49c.96,0,1.74-.78,1.74-1.74v-17.81c0-.95-.78-1.74-1.74-1.74h-25c-.96,0-1.74.78-1.74,1.74v17.81c0,.96.78,1.74,1.74,1.74h13.51Z"/>
    <path class="cls-1" d="M310.54,238.72v37.39h-8.05v-37.39h8.05Z"/>
    <path class="cls-1" d="M353.24,238.1l24.68,38h-9.61l-19.1-29.41-19.1,29.41h-9.61l24.68-38h8.05Z"/>
    <path class="cls-1" d="M395.95,254.82v21.29h-8.05v-37.39h8.05l11.59,20.04,4.66,8.05,4.66-8.05,11.59-20.04h8.05v37.39h-8.05v-21.29l-6.94,12-4.66,8.05-.72,1.25h-7.87l-.72-1.25-4.66-8.05-6.94-12Z"/>
    <path class="cls-1" d="M486.26,268.05h-29.97c-.96,0-1.74-.78-1.74-1.74v-17.8c0-.96.78-1.74,1.74-1.74h29.97c0-4.45-3.61-8.05-8.05-8.05h-21.92c-5.41,0-9.79,4.38-9.79,9.79v17.8c0,5.41,4.38,9.79,9.79,9.79h21.92c4.45,0,8.05-3.61,8.05-8.05h0Z"/>
  </g>
  <path class="cls-1" d="M389.11,29.07c-15.14,3.91-30.6,4.28-46.11,4.34-11.22.04-22.43.46-33.65.48-3.45,0-5.71,1.33-7.77,3.96-4.28,5.47-8.77,10.78-13.29,16.04-.64.75-1.98.89-3,1.31-.23-1.05-.88-2.21-.63-3.13.96-3.53,2.15-7,3.37-10.46.74-2.11,1.69-4.15,2.62-6.39-.73-.17-1.1-.35-1.46-.32-20.08,1.38-39.79,4.77-59.02,10.81-2.34.74-3.62,2.27-4.47,4.39-4.12,10.28-7.22,20.83-8.18,31.89-.25,2.94-1.39,3.86-4.28,3.86-2.91,0-4.24-.91-4.15-3.89.26-8.22.44-16.45.66-24.68.03-.95.12-1.89.25-3.75-16.5,7.84-29.13,18.81-37.95,33.95-13.07,22.45-15.93,46.64-12.46,72-.11.11-.23.21-.34.33-3.64,4.02-7.64,7.76-10.93,12.03-6.68,8.68-13.1,17.56-19.46,26.48h15.57c6.72-9.26,14.12-17.97,21.9-26.4,3.07,2.1,5.68,4.17,8.54,5.79,20.73,11.7,43.19,15.92,66.63,13.77,30.32-2.78,56.86-15.24,80.69-33.82.72-.56,1.29-1.3,2.27-2.31-1.45-.34-2.28-.61-3.13-.73-10.76-1.5-20.8-4.98-30.13-10.58-1.4-.84-2.58-1.44-1.58-3.38.87-1.7,1.37-3.7,3.99-2.9.85.26,1.72.49,2.58.73,15.29,4.43,30.39,3.93,45.27-1.81,1.07-.41,2.09-1.18,2.89-2.01,2.26-2.37,4.47-4.79,6.54-7.32,10.08-12.26,18.23-25.73,24.82-40.15,8.1-17.7,13.89-36.1,16.36-55.47.33-2.54-.53-3.32-2.97-2.69ZM299.37,84.43c-20.15,7.7-39.66,16.76-58.42,27.46-24.37,13.9-46.66,30.5-66.34,50.53-1.35,1.37-2.63,2.81-3.92,4.31-.4-.71-.65-1.4-1.11-1.88-1.71-1.78-3.48-3.49-5.24-5.21-.74-.73-1.47-1.11-2.18-1.2.26-.24.52-.48.78-.72,9.74-9.04,19.05-18.61,29.32-26.99,19.53-15.94,40.89-29.21,63.9-39.52,13.38-6,27.32-10.74,40.98-16.12,2.35-.92,3.57-.31,4.07,2.09.14.68.37,1.35.64,1.98,1.15,2.7.5,4.14-2.46,5.28Z"/>
</svg>