<?xml version="1.0" encoding="UTF-8"?>
<svg id="_图层_1" data-name="图层 1" xmlns="http://www.w3.org/2000/svg" viewBox="0 0 521 226">
  <defs>
    <style>
      .cls-1 {
        fill: #3d7b52;
      }
    </style>
  </defs>
  <g>
    <path class="cls-1" d="M116.06,187.5h-18.26c-.72,0-1.31-.59-1.31-1.31v-2.36c0-.72.59-1.31,1.31-1.31h24.69c0-3.35-2.72-6.07-6.07-6.07h-19.57c-3.55,0-6.43,2.88-6.43,6.43v4.26c0,3.55,2.88,6.43,6.43,6.43h18.26c.72,0,1.31.59,1.31,1.31v2.36c0,.72-.59,1.31-1.31,1.31h-24.69c0,3.35,2.72,6.07,6.07,6.07h19.57c3.55,0,6.43-2.88,6.43-6.43v-4.26c0-3.55-2.88-6.43-6.43-6.43Z"/>
    <path class="cls-1" d="M130.01,176.45h31.31v6.07h-31.31v-6.07ZM130.01,187.5h31.31v6.07h-31.31v-6.07ZM130.01,198.55h31.31v6.07h-31.31v-6.07Z"/>
    <path class="cls-1" d="M186.4,204.61h-10.17c-4.07,0-7.38-3.31-7.38-7.38v-13.42c0-4.07,3.31-7.38,7.38-7.38h18.83c4.07,0,7.38,3.31,7.38,7.38v13.42c0,3.46-2.39,6.37-5.61,7.16l2.11,3.25h-7.24l-1.97-3.03h-3.32ZM185.78,198.55l-1.97-3.03h7.24l1.97,3.03h2.04c.72,0,1.31-.59,1.31-1.31v-13.42c0-.72-.59-1.31-1.31-1.31h-18.83c-.72,0-1.31.59-1.31,1.31v13.42c0,.72.59,1.31,1.31,1.31h9.55Z"/>
    <path class="cls-1" d="M227.45,199.67h8.7c.72,0,1.31-.59,1.31-1.31v-20.79h6.07v20.85c-.03,4.04-3.33,7.32-7.38,7.32h-18.83c-4.07,0-7.38-3.31-7.38-7.38v-20.79h6.07v20.79c0,.72.59,1.31,1.31,1.31h10.13Z"/>
    <path class="cls-1" d="M268.59,176.45h8.66c4.07,0,7.38,3.31,7.38,7.38v13.42c0,4.07-3.31,7.38-7.38,7.38h-18.83c-4.07,0-7.38-3.31-7.38-7.38v-13.42c0-4.07,3.31-7.38,7.38-7.38h10.17ZM268.59,198.55h8.66c.72,0,1.31-.59,1.31-1.31v-13.42c0-.72-.59-1.31-1.31-1.31h-18.83c-.72,0-1.31.59-1.31,1.31v13.42c0,.72.59,1.31,1.31,1.31h10.17Z"/>
    <path class="cls-1" d="M298.2,176.45v28.17h-6.07v-28.17h6.07Z"/>
    <path class="cls-1" d="M330.37,175.98l18.59,28.63h-7.24l-14.39-22.15-14.39,22.15h-7.24l18.59-28.63h6.07Z"/>
    <path class="cls-1" d="M362.54,188.57v16.04h-6.07v-28.17h6.07l8.74,15.1,3.51,6.06,3.51-6.06,8.74-15.1h6.07v28.17h-6.07v-16.04l-5.23,9.04-3.51,6.06-.54.94h-5.93l-.54-.94-3.51-6.06-5.23-9.04Z"/>
    <path class="cls-1" d="M430.58,198.55h-22.58c-.72,0-1.31-.59-1.31-1.31v-13.41c0-.72.59-1.31,1.31-1.31h22.58c0-3.35-2.72-6.07-6.07-6.07h-16.51c-4.07,0-7.38,3.3-7.38,7.38v13.41c0,4.07,3.3,7.38,7.38,7.38h16.51c3.35,0,6.07-2.72,6.07-6.07h0Z"/>
  </g>
  <path class="cls-1" d="M357.39,18.51c-11.4,2.95-23.05,3.22-34.74,3.27-8.45.03-16.9.35-25.35.36-2.6,0-4.3,1-5.85,2.99-3.22,4.12-6.6,8.12-10.01,12.09-.48.56-1.49.67-2.26.99-.18-.79-.66-1.66-.47-2.35.72-2.66,1.62-5.28,2.54-7.88.56-1.59,1.28-3.12,1.98-4.81-.55-.13-.83-.26-1.1-.24-15.13,1.04-29.98,3.59-44.47,8.14-1.77.55-2.72,1.71-3.37,3.31-3.1,7.74-5.44,15.69-6.16,24.03-.19,2.21-1.05,2.91-3.23,2.91-2.19,0-3.2-.69-3.13-2.93.19-6.2.33-12.39.5-18.59.02-.71.09-1.42.19-2.83-12.43,5.91-21.95,14.17-28.59,25.58-9.84,16.91-12,35.14-9.39,54.24-.09.08-.17.16-.26.25-2.74,3.03-5.75,5.84-8.23,9.07-5.03,6.54-9.87,13.23-14.66,19.95h11.73c5.06-6.97,10.64-13.54,16.5-19.89,2.31,1.58,4.28,3.14,6.43,4.36,15.61,8.81,32.54,11.99,50.2,10.37,22.84-2.09,42.83-11.48,60.79-25.48.54-.42.97-.98,1.71-1.74-1.09-.26-1.72-.46-2.36-.55-8.1-1.13-15.67-3.75-22.7-7.97-1.05-.63-1.94-1.08-1.19-2.55.65-1.28,1.03-2.78,3.01-2.18.64.2,1.3.37,1.94.55,11.52,3.33,22.9,2.96,34.1-1.36.8-.31,1.58-.89,2.17-1.52,1.7-1.79,3.37-3.61,4.93-5.52,7.59-9.24,13.73-19.39,18.7-30.24,6.1-13.34,10.46-27.19,12.33-41.79.24-1.91-.4-2.5-2.23-2.02ZM289.79,60.21c-15.18,5.8-29.88,12.63-44.01,20.69-18.36,10.48-35.15,22.98-49.98,38.07-1.01,1.03-1.98,2.12-2.96,3.25-.3-.54-.49-1.05-.84-1.42-1.28-1.34-2.62-2.63-3.95-3.93-.56-.55-1.11-.84-1.65-.9.19-.18.39-.36.59-.54,7.34-6.81,14.35-14.02,22.09-20.33,14.71-12.01,30.81-22.01,48.14-29.77,10.08-4.52,20.58-8.09,30.87-12.14,1.77-.7,2.69-.24,3.06,1.57.11.51.28,1.01.48,1.49.87,2.03.38,3.12-1.86,3.97Z"/>
</svg>