<?xml version="1.0" encoding="UTF-8"?>
<svg id="_图层_1" data-name="图层 1" xmlns="http://www.w3.org/2000/svg" viewBox="0 0 521 226">
  <defs>
    <style>
      .cls-1 {
        fill: #3d7b52;
      }
    </style>
  </defs>
  <g>
    <path class="cls-1" d="M112.58,189.29h-18.7c-.74,0-1.34-.6-1.34-1.34v-2.42c0-.74.6-1.34,1.34-1.34h25.29c0-3.43-2.78-6.21-6.21-6.21h-20.04c-3.64,0-6.59,2.95-6.59,6.59v4.36c0,3.64,2.95,6.59,6.59,6.59h18.7c.74,0,1.34.6,1.34,1.34v2.42c0,.74-.6,1.34-1.34,1.34h-25.29c0,3.43,2.78,6.21,6.21,6.21h20.04c3.64,0,6.59-2.95,6.59-6.59v-4.36c0-3.64-2.95-6.59-6.59-6.59Z"/>
    <path class="cls-1" d="M126.87,177.97h32.06v6.21h-32.06v-6.21ZM126.87,189.29h32.06v6.21h-32.06v-6.21ZM126.87,200.61h32.06v6.21h-32.06v-6.21Z"/>
    <path class="cls-1" d="M184.62,206.82h-10.42c-4.17,0-7.55-3.39-7.55-7.55v-13.74c0-4.17,3.39-7.55,7.55-7.55h19.29c4.17,0,7.55,3.39,7.55,7.55v13.74c0,3.54-2.45,6.52-5.75,7.33l2.16,3.33h-7.42l-2.02-3.11h-3.4ZM183.98,200.61l-2.02-3.11h7.41l2.02,3.11h2.09c.74,0,1.34-.6,1.34-1.34v-13.74c0-.74-.6-1.34-1.34-1.34h-19.29c-.74,0-1.34.6-1.34,1.34v13.74c0,.74.6,1.34,1.34,1.34h9.78Z"/>
    <path class="cls-1" d="M226.66,201.75h8.91c.74,0,1.34-.6,1.34-1.34v-21.29h6.21v21.35c-.03,4.14-3.41,7.5-7.55,7.5h-19.29c-4.17,0-7.55-3.39-7.55-7.55v-21.29h6.21v21.29c0,.74.6,1.34,1.34,1.34h10.38Z"/>
    <path class="cls-1" d="M268.79,177.97h8.87c4.17,0,7.55,3.39,7.55,7.55v13.74c0,4.17-3.39,7.55-7.55,7.55h-19.29c-4.17,0-7.55-3.39-7.55-7.55v-13.74c0-4.17,3.39-7.55,7.55-7.55h10.42ZM268.79,200.61h8.87c.74,0,1.34-.6,1.34-1.34v-13.74c0-.74-.6-1.34-1.34-1.34h-19.29c-.74,0-1.34.6-1.34,1.34v13.74c0,.74.6,1.34,1.34,1.34h10.42Z"/>
    <path class="cls-1" d="M299.11,177.97v28.85h-6.21v-28.85h6.21Z"/>
    <path class="cls-1" d="M332.05,177.5l19.04,29.32h-7.41l-14.73-22.69-14.73,22.69h-7.42l19.04-29.32h6.21Z"/>
    <path class="cls-1" d="M365,190.39v16.43h-6.21v-28.85h6.21l8.95,15.46,3.59,6.21,3.59-6.21,8.95-15.46h6.21v28.85h-6.21v-16.43l-5.35,9.25-3.59,6.21-.56.96h-6.07l-.56-.96-3.59-6.21-5.35-9.25Z"/>
    <path class="cls-1" d="M434.67,200.61h-23.12c-.74,0-1.34-.6-1.34-1.34v-13.74c0-.74.6-1.34,1.34-1.34h23.13c0-3.43-2.78-6.21-6.21-6.21h-16.91c-4.17,0-7.56,3.38-7.56,7.56v13.74c0,4.17,3.38,7.56,7.56,7.56h16.91c3.43,0,6.21-2.78,6.21-6.21h0Z"/>
  </g>
  <path class="cls-1" d="M359.72,16.23c-11.68,3.02-23.61,3.3-35.57,3.35-8.65.03-17.31.36-25.96.37-2.66,0-4.41,1.02-6,3.06-3.3,4.22-6.76,8.31-10.26,12.38-.49.57-1.53.69-2.31,1.01-.18-.81-.68-1.7-.49-2.41.74-2.72,1.66-5.4,2.6-8.07.57-1.63,1.31-3.2,2.02-4.93-.56-.13-.85-.27-1.13-.25-15.49,1.07-30.7,3.68-45.54,8.34-1.81.57-2.79,1.75-3.45,3.39-3.18,7.93-5.57,16.07-6.31,24.6-.2,2.26-1.08,2.98-3.3,2.98-2.25,0-3.27-.7-3.2-3,.2-6.35.34-12.69.51-19.04.02-.73.1-1.46.19-2.9-12.73,6.05-22.48,14.51-29.28,26.19-10.08,17.32-12.29,35.98-9.61,55.54-.09.08-.18.16-.27.26-2.81,3.1-5.89,5.98-8.43,9.28-5.15,6.7-10.11,13.55-15.01,20.43h12.01c5.18-7.14,10.89-13.87,16.89-20.37,2.37,1.62,4.38,3.22,6.59,4.46,15.99,9.02,33.32,12.28,51.41,10.62,23.39-2.14,43.86-11.76,62.25-26.1.55-.43,1-1.01,1.75-1.78-1.12-.26-1.76-.47-2.42-.56-8.3-1.16-16.05-3.84-23.24-8.16-1.08-.65-1.99-1.11-1.22-2.61.67-1.31,1.05-2.85,3.08-2.24.66.2,1.33.37,1.99.57,11.8,3.41,23.45,3.04,34.92-1.4.82-.32,1.61-.91,2.23-1.55,1.74-1.83,3.45-3.7,5.05-5.65,7.78-9.46,14.06-19.85,19.15-30.97,6.25-13.66,10.71-27.85,12.63-42.8.25-1.96-.41-2.56-2.29-2.07ZM290.49,58.94c-15.54,5.94-30.6,12.93-45.07,21.19-18.8,10.73-36,23.53-51.18,38.98-1.04,1.06-2.03,2.17-3.03,3.32-.31-.55-.5-1.08-.86-1.45-1.32-1.37-2.68-2.69-4.05-4.02-.57-.56-1.13-.86-1.69-.92.2-.19.4-.37.6-.56,7.52-6.97,14.69-14.36,22.62-20.82,15.07-12.3,31.55-22.54,49.3-30.49,10.32-4.63,21.08-8.28,31.62-12.43,1.81-.71,2.75-.24,3.14,1.61.11.52.28,1.04.49,1.53.89,2.08.38,3.2-1.9,4.07Z"/>
</svg>