<?xml version="1.0" encoding="UTF-8"?>
<svg id="_图层_1" data-name="图层 1" xmlns="http://www.w3.org/2000/svg" viewBox="0 0 512 512">
  <defs>
    <style>
      .cls-1 {
        fill: #3d7b52;
      }

      .cls-2 {
        fill: #262626;
      }
    </style>
  </defs>
  <rect class="cls-2" width="512" height="512" rx="100" ry="100"/>
  <path class="cls-1" d="M469.61,115.59c-25.14,6.5-50.83,7.1-76.59,7.2-18.63.07-37.26.76-55.89.8-5.72.01-9.48,2.2-12.91,6.58-7.1,9.09-14.56,17.9-22.08,26.65-1.06,1.24-3.29,1.48-4.97,2.18-.39-1.74-1.46-3.67-1.05-5.19,1.6-5.87,3.58-11.63,5.6-17.37,1.24-3.5,2.81-6.89,4.36-10.61-1.21-.28-1.83-.58-2.42-.53-33.35,2.3-66.09,7.93-98.03,17.95-3.89,1.22-6.01,3.77-7.42,7.3-6.84,17.07-11.99,34.59-13.59,52.97-.42,4.88-2.32,6.41-7.11,6.42-4.83,0-7.05-1.52-6.89-6.45.43-13.66.73-27.33,1.1-40.99.04-1.57.21-3.14.42-6.23-27.41,13.03-48.39,31.24-63.03,56.39-21.7,37.28-26.45,77.47-20.7,119.58-.19.18-.38.35-.57.56-6.04,6.68-12.69,12.88-18.15,19.99-11.1,14.42-21.77,29.17-32.32,43.99h25.86c11.16-15.37,23.45-29.85,36.37-43.85,5.1,3.49,9.43,6.93,14.18,9.61,34.43,19.42,71.73,26.44,110.67,22.87,50.36-4.62,94.43-25.32,134.02-56.18,1.19-.93,2.15-2.16,3.78-3.84-2.41-.57-3.79-1.01-5.2-1.21-17.86-2.49-34.55-8.27-50.04-17.57-2.32-1.39-4.28-2.39-2.63-5.62,1.44-2.83,2.27-6.14,6.63-4.82,1.42.43,2.86.81,4.28,1.22,25.4,7.35,50.48,6.53,75.18-3.01,1.77-.69,3.47-1.95,4.8-3.34,3.75-3.94,7.42-7.96,10.87-12.16,16.74-20.36,30.27-42.74,41.22-66.68,13.45-29.4,23.06-59.96,27.18-92.13.54-4.22-.88-5.51-4.93-4.46ZM320.57,207.53c-33.47,12.78-65.87,27.84-97.02,45.61-40.48,23.09-77.5,50.66-110.19,83.92-2.24,2.28-4.36,4.67-6.52,7.16-.66-1.18-1.08-2.33-1.85-3.13-2.83-2.95-5.78-5.8-8.71-8.66-1.24-1.21-2.44-1.84-3.63-1.99.43-.4.86-.8,1.29-1.2,16.18-15.01,31.63-30.9,48.7-44.83,32.44-26.47,67.92-48.51,106.14-65.64,22.22-9.96,45.38-17.84,68.07-26.77,3.9-1.53,5.92-.52,6.75,3.47.23,1.12.61,2.23,1.06,3.29,1.91,4.48.83,6.88-4.09,8.76Z"/>
</svg>